 <svg
    class="xl:ml-2"
    version="1.0"
    xmlns="http://www.w3.org/2000/svg"
    width="20"
    height="20"
    viewBox="0 0 512.000000 512.000000"
    preserveAspectRatio="xMidYMid meet"
  >
    <g
      transform="translate(0.000000,512.000000) scale(0.100000,-0.100000)"
      fill="currentColor"
      stroke="none"
    >
      <path
        d="M3154 4419 c-104 -31 -146 -168 -78 -249 47 -55 41 -55 449 -60 422 -6 416 -5 493 -75 23 -20 51 -57 64 -83 l23 -47 0 -1345 c0 -1229 -1 -1348 -17 -1381 -24 -54 -83 -115 -136 -141 -46 -23 -55 -23 -429 -28 -366 -5 -383 -6 -409 -26 -43 -31 -65 -67 -71 -112 -7 -55 26 -123 75 -154 37 -23 38 -23 417 -23 287 0 394 3 435 14 216 53 388 225 441 441 21 81 21 2739 0 2820 -51 209 -211 374 -421 437 -46 14 -119 17 -430 19 -217 2 -388 -1 -406 -7z"
      />
      <path
        d="M2272 3553 c-62 -30 -96 -114 -78 -190 5 -19 109 -130 314 -335 l307 -308 -1104 0 c-1228 0 -1143 5 -1199 -68 -39 -51 -39 -133 0 -184 56 -73 -29 -68 1199 -68 l1104 0 -307 -308 c-205 -205 -309 -316 -314 -335 -10 -44 1 -112 24 -145 41 -56 139 -80 200 -48 15 8 230 218 479 468 489 491 475 474 458 566 -6 32 -63 93 -458 490 -249 250 -464 460 -479 468 -36 19 -105 17 -146 -3z"
      />
    </g>
  </svg>