<svg
    xmlns="http://www.w3.org/2000/svg"
    xmlns:xlink="http://www.w3.org/1999/xlink"
    width="150"
    class="cursor-pointer"
    zoomAndPan="magnify"
    viewBox="0 0 375 374.999991"
    height="150"
    preserveAspectRatio="xMidYMid meet"
    version="1.0"
  >
    <defs>
      <g />
      <clipPath id="73d8bca948">
        <path
          d="M 258.519531 185.394531 L 291.945312 185.394531 L 291.945312 202.105469 L 258.519531 202.105469 Z M 258.519531 185.394531 "
          clip-rule="nonzero"
        />
      </clipPath>
      <clipPath id="e5839813ef">
        <path
          d="M 267.304688 173.027344 L 283.222656 173.027344 L 283.222656 180.988281 L 267.304688 180.988281 Z M 267.304688 173.027344 "
          clip-rule="nonzero"
        />
      </clipPath>
    </defs>
    <g clip-path="url(#73d8bca948)">
      <path
        fill="currentColor"
        d="M 286.839844 185.394531 C 286.839844 191.828125 281.613281 197.058594 275.175781 197.058594 C 268.742188 197.058594 263.511719 191.828125 263.511719 185.394531 L 258.539062 185.394531 C 258.539062 194.582031 265.984375 202.03125 275.175781 202.03125 C 284.367188 202.03125 291.789062 194.582031 291.789062 185.394531 Z M 286.839844 185.394531 "
        fill-opacity="1"
        fill-rule="nonzero"
      />
    </g>
    <g clip-path="url(#e5839813ef)">
      <path
        fill="currentColor"
        d="M 271.765625 180.886719 L 267.304688 180.886719 C 267.304688 176.546875 270.824219 173.027344 275.164062 173.027344 C 279.503906 173.027344 283.023438 176.546875 283.023438 180.886719 L 278.5625 180.886719 C 278.554688 179.019531 277.035156 177.511719 275.164062 177.511719 C 273.292969 177.511719 271.777344 179.019531 271.765625 180.886719 Z M 271.765625 180.886719 "
        fill-opacity="1"
        fill-rule="nonzero"
      />
    </g>
    <g fill="currentColor" fill-opacity="1">
      <g transform="translate(83.181657, 200.999987)">
        <g>
          <path
            d="M 18.59375 -14.3125 C 20.164062 -14.019531 21.457031 -13.234375 22.46875 -11.953125 C 23.488281 -10.679688 24 -9.21875 24 -7.5625 C 24 -6.0625 23.628906 -4.742188 22.890625 -3.609375 C 22.160156 -2.484375 21.101562 -1.597656 19.71875 -0.953125 C 18.332031 -0.316406 16.691406 0 14.796875 0 L 2.765625 0 L 2.765625 -27.921875 L 14.28125 -27.921875 C 16.175781 -27.921875 17.804688 -27.613281 19.171875 -27 C 20.546875 -26.382812 21.585938 -25.53125 22.296875 -24.4375 C 23.003906 -23.34375 23.359375 -22.101562 23.359375 -20.71875 C 23.359375 -19.09375 22.925781 -17.734375 22.0625 -16.640625 C 21.195312 -15.546875 20.039062 -14.769531 18.59375 -14.3125 Z M 8.359375 -16.40625 L 13.484375 -16.40625 C 14.816406 -16.40625 15.84375 -16.703125 16.5625 -17.296875 C 17.28125 -17.898438 17.640625 -18.757812 17.640625 -19.875 C 17.640625 -21 17.28125 -21.867188 16.5625 -22.484375 C 15.84375 -23.097656 14.816406 -23.40625 13.484375 -23.40625 L 8.359375 -23.40625 Z M 14 -4.5625 C 15.363281 -4.5625 16.421875 -4.878906 17.171875 -5.515625 C 17.929688 -6.160156 18.3125 -7.066406 18.3125 -8.234375 C 18.3125 -9.441406 17.910156 -10.382812 17.109375 -11.0625 C 16.316406 -11.738281 15.238281 -12.078125 13.875 -12.078125 L 8.359375 -12.078125 L 8.359375 -4.5625 Z M 14 -4.5625 "
          />
        </g>
      </g>
    </g>
    <g fill="currentColor" fill-opacity="1">
      <g transform="translate(108.899104, 200.999987)">
        <g>
          <path
            d="M 8.28125 -27.921875 L 8.28125 -10.640625 C 8.28125 -8.742188 8.769531 -7.296875 9.75 -6.296875 C 10.738281 -5.296875 12.128906 -4.796875 13.921875 -4.796875 C 15.734375 -4.796875 17.128906 -5.296875 18.109375 -6.296875 C 19.097656 -7.296875 19.59375 -8.742188 19.59375 -10.640625 L 19.59375 -27.921875 L 25.234375 -27.921875 L 25.234375 -10.6875 C 25.234375 -8.3125 24.71875 -6.300781 23.6875 -4.65625 C 22.664062 -3.019531 21.296875 -1.785156 19.578125 -0.953125 C 17.859375 -0.128906 15.945312 0.28125 13.84375 0.28125 C 11.757812 0.28125 9.867188 -0.128906 8.171875 -0.953125 C 6.484375 -1.785156 5.144531 -3.019531 4.15625 -4.65625 C 3.175781 -6.300781 2.6875 -8.3125 2.6875 -10.6875 L 2.6875 -27.921875 Z M 8.28125 -27.921875 "
          />
        </g>
      </g>
    </g>
    <g fill="currentColor" fill-opacity="1">
      <g transform="translate(136.776337, 200.999987)">
        <g>
          <path
            d="M 12.40625 0.28125 C 10.457031 0.28125 8.703125 -0.0507812 7.140625 -0.71875 C 5.578125 -1.382812 4.34375 -2.34375 3.4375 -3.59375 C 2.53125 -4.851562 2.066406 -6.335938 2.046875 -8.046875 L 8.046875 -8.046875 C 8.117188 -6.890625 8.519531 -5.976562 9.25 -5.3125 C 9.988281 -4.644531 11 -4.3125 12.28125 -4.3125 C 13.582031 -4.3125 14.609375 -4.625 15.359375 -5.25 C 16.109375 -5.882812 16.484375 -6.707031 16.484375 -7.71875 C 16.484375 -8.539062 16.226562 -9.21875 15.71875 -9.75 C 15.207031 -10.289062 14.570312 -10.710938 13.8125 -11.015625 C 13.0625 -11.328125 12.019531 -11.671875 10.6875 -12.046875 C 8.863281 -12.578125 7.382812 -13.101562 6.25 -13.625 C 5.125 -14.144531 4.15625 -14.929688 3.34375 -15.984375 C 2.53125 -17.035156 2.125 -18.441406 2.125 -20.203125 C 2.125 -21.859375 2.535156 -23.296875 3.359375 -24.515625 C 4.179688 -25.742188 5.335938 -26.679688 6.828125 -27.328125 C 8.328125 -27.984375 10.035156 -28.3125 11.953125 -28.3125 C 14.835938 -28.3125 17.179688 -27.613281 18.984375 -26.21875 C 20.785156 -24.820312 21.773438 -22.867188 21.953125 -20.359375 L 15.796875 -20.359375 C 15.742188 -21.316406 15.335938 -22.109375 14.578125 -22.734375 C 13.816406 -23.367188 12.8125 -23.6875 11.5625 -23.6875 C 10.46875 -23.6875 9.59375 -23.40625 8.9375 -22.84375 C 8.28125 -22.28125 7.953125 -21.46875 7.953125 -20.40625 C 7.953125 -19.65625 8.195312 -19.03125 8.6875 -18.53125 C 9.1875 -18.039062 9.800781 -17.640625 10.53125 -17.328125 C 11.269531 -17.023438 12.304688 -16.675781 13.640625 -16.28125 C 15.453125 -15.75 16.929688 -15.210938 18.078125 -14.671875 C 19.222656 -14.140625 20.207031 -13.34375 21.03125 -12.28125 C 21.863281 -11.21875 22.28125 -9.816406 22.28125 -8.078125 C 22.28125 -6.585938 21.890625 -5.203125 21.109375 -3.921875 C 20.335938 -2.640625 19.207031 -1.617188 17.71875 -0.859375 C 16.226562 -0.0976562 14.457031 0.28125 12.40625 0.28125 Z M 12.40625 0.28125 "
          />
        </g>
      </g>
    </g>
    <g fill="currentColor" fill-opacity="1">
      <g transform="translate(161.133918, 200.999987)">
        <g>
          <path
            d="M 8.359375 -27.921875 L 8.359375 0 L 2.765625 0 L 2.765625 -27.921875 Z M 8.359375 -27.921875 "
          />
        </g>
      </g>
    </g>
    <g fill="currentColor" fill-opacity="1">
      <g transform="translate(172.252814, 200.999987)">
        <g>
          <path
            d="M 18.59375 -14.3125 C 20.164062 -14.019531 21.457031 -13.234375 22.46875 -11.953125 C 23.488281 -10.679688 24 -9.21875 24 -7.5625 C 24 -6.0625 23.628906 -4.742188 22.890625 -3.609375 C 22.160156 -2.484375 21.101562 -1.597656 19.71875 -0.953125 C 18.332031 -0.316406 16.691406 0 14.796875 0 L 2.765625 0 L 2.765625 -27.921875 L 14.28125 -27.921875 C 16.175781 -27.921875 17.804688 -27.613281 19.171875 -27 C 20.546875 -26.382812 21.585938 -25.53125 22.296875 -24.4375 C 23.003906 -23.34375 23.359375 -22.101562 23.359375 -20.71875 C 23.359375 -19.09375 22.925781 -17.734375 22.0625 -16.640625 C 21.195312 -15.546875 20.039062 -14.769531 18.59375 -14.3125 Z M 8.359375 -16.40625 L 13.484375 -16.40625 C 14.816406 -16.40625 15.84375 -16.703125 16.5625 -17.296875 C 17.28125 -17.898438 17.640625 -18.757812 17.640625 -19.875 C 17.640625 -21 17.28125 -21.867188 16.5625 -22.484375 C 15.84375 -23.097656 14.816406 -23.40625 13.484375 -23.40625 L 8.359375 -23.40625 Z M 14 -4.5625 C 15.363281 -4.5625 16.421875 -4.878906 17.171875 -5.515625 C 17.929688 -6.160156 18.3125 -7.066406 18.3125 -8.234375 C 18.3125 -9.441406 17.910156 -10.382812 17.109375 -11.0625 C 16.316406 -11.738281 15.238281 -12.078125 13.875 -12.078125 L 8.359375 -12.078125 L 8.359375 -4.5625 Z M 14 -4.5625 "
          />
        </g>
      </g>
    </g>
    <g fill="currentColor" fill-opacity="1">
      <g transform="translate(197.970261, 200.999987)">
        <g>
          <path
            d="M 8.28125 -27.921875 L 8.28125 -10.640625 C 8.28125 -8.742188 8.769531 -7.296875 9.75 -6.296875 C 10.738281 -5.296875 12.128906 -4.796875 13.921875 -4.796875 C 15.734375 -4.796875 17.128906 -5.296875 18.109375 -6.296875 C 19.097656 -7.296875 19.59375 -8.742188 19.59375 -10.640625 L 19.59375 -27.921875 L 25.234375 -27.921875 L 25.234375 -10.6875 C 25.234375 -8.3125 24.71875 -6.300781 23.6875 -4.65625 C 22.664062 -3.019531 21.296875 -1.785156 19.578125 -0.953125 C 17.859375 -0.128906 15.945312 0.28125 13.84375 0.28125 C 11.757812 0.28125 9.867188 -0.128906 8.171875 -0.953125 C 6.484375 -1.785156 5.144531 -3.019531 4.15625 -4.65625 C 3.175781 -6.300781 2.6875 -8.3125 2.6875 -10.6875 L 2.6875 -27.921875 Z M 8.28125 -27.921875 "
          />
        </g>
      </g>
    </g>
    <g fill="currentColor" fill-opacity="1">
      <g transform="translate(225.847494, 200.999987)">
        <g>
          <path
            d="M 24.953125 -27.921875 L 15.515625 -9.71875 L 15.515625 0 L 9.921875 0 L 9.921875 -9.71875 L 0.4375 -27.921875 L 6.765625 -27.921875 L 12.765625 -15.15625 L 18.71875 -27.921875 Z M 24.953125 -27.921875 "
          />
        </g>
      </g>
    </g>
  </svg>