<svg
    fill="currentColor"
    width="21"
    height="21"
    xmlns="http://www.w3.org/2000/svg"
    data-name="Layer 1"
    x="0px"
    y="0px"
    viewBox="21 21 58 58"
  >
    <path
      d="M79,40.12a11,11,0,0,0-1.45-5.46l-5.22-9.13A9,9,0,0,0,64.52,21h-29a9,9,0,0,0-7.81,4.53l-5.22,9.13A11,11,0,0,0,21,40.12V68A11,11,0,0,0,32,79H68A11,11,0,0,0,79,68ZM53,27H66.26l6.29,11H53ZM33.74,27H47V38H27.46Zm37.8,44.54A5,5,0,0,1,68,73H32a5,5,0,0,1-5-5V44H47V55.83A3.12,3.12,0,0,0,49.7,59,3,3,0,0,0,52,58.22,3,3,0,0,0,53,56V44H73V68A5,5,0,0,1,71.54,71.54Z"
    />
  </svg>