 <svg
    xmlns="http://www.w3.org/2000/svg"
    xmlns:xlink="http://www.w3.org/1999/xlink"
    width="200"
    zoomAndPan="magnify"
    viewBox="0 0 150 52.499999"
    height="70"
    preserveAspectRatio="xMidYMid meet"
    version="1.0"
  >
    <defs>
      <g />
      <clipPath id="8f7dc2aee1">
        <path
          d="M 134 15 L 148 15 L 148 35 L 134 35 Z M 134 15 "
          clip-rule="nonzero"
        />
      </clipPath>
      <clipPath id="49bc475daa">
        <path
          d="M 131.515625 5.199219 L 151.480469 25.164062 L 132.042969 44.601562 L 112.082031 24.636719 Z M 131.515625 5.199219 "
          clip-rule="nonzero"
        />
      </clipPath>
      <clipPath id="ead20f4e77">
        <path
          d="M 131.515625 5.199219 L 151.480469 25.164062 L 132.042969 44.601562 L 112.082031 24.636719 Z M 131.515625 5.199219 "
          clip-rule="nonzero"
        />
      </clipPath>
      <clipPath id="c6af56b6b9">
        <path
          d="M 131.515625 5.199219 L 151.480469 25.164062 L 132.042969 44.601562 L 112.082031 24.636719 Z M 131.515625 5.199219 "
          clip-rule="nonzero"
        />
      </clipPath>
      <clipPath id="970b2682d9">
        <path
          d="M 116 15 L 130 15 L 130 35 L 116 35 Z M 116 15 "
          clip-rule="nonzero"
        />
      </clipPath>
      <clipPath id="3d06eb5994">
        <path
          d="M 131.515625 5.199219 L 151.480469 25.164062 L 132.042969 44.601562 L 112.082031 24.636719 Z M 131.515625 5.199219 "
          clip-rule="nonzero"
        />
      </clipPath>
      <clipPath id="da4637b09d">
        <path
          d="M 131.515625 5.199219 L 151.480469 25.164062 L 132.042969 44.601562 L 112.082031 24.636719 Z M 131.515625 5.199219 "
          clip-rule="nonzero"
        />
      </clipPath>
      <clipPath id="985284e205">
        <path
          d="M 131.515625 5.199219 L 151.480469 25.164062 L 132.042969 44.601562 L 112.082031 24.636719 Z M 131.515625 5.199219 "
          clip-rule="nonzero"
        />
      </clipPath>
      <clipPath id="879d3b519f">
        <path
          d="M 123 23 L 141 23 L 141 27 L 123 27 Z M 123 23 "
          clip-rule="nonzero"
        />
      </clipPath>
      <clipPath id="fd06e49349">
        <path
          d="M 131.515625 5.199219 L 151.480469 25.164062 L 132.042969 44.601562 L 112.082031 24.636719 Z M 131.515625 5.199219 "
          clip-rule="nonzero"
        />
      </clipPath>
      <clipPath id="a4736d7f5d">
        <path
          d="M 131.515625 5.199219 L 151.480469 25.164062 L 132.042969 44.601562 L 112.082031 24.636719 Z M 131.515625 5.199219 "
          clip-rule="nonzero"
        />
      </clipPath>
      <clipPath id="271410cb54">
        <path
          d="M 131.515625 5.199219 L 151.480469 25.164062 L 132.042969 44.601562 L 112.082031 24.636719 Z M 131.515625 5.199219 "
          clip-rule="nonzero"
        />
      </clipPath>
    </defs>
    <g fill="currentcolor" fill-opacity="1">
      <g transform="translate(1.934647, 33.516293)">
        <g>
          <path
            d="M 11.9375 -9.203125 C 12.945312 -9.003906 13.773438 -8.492188 14.421875 -7.671875 C 15.078125 -6.859375 15.40625 -5.921875 15.40625 -4.859375 C 15.40625 -3.898438 15.171875 -3.054688 14.703125 -2.328125 C 14.234375 -1.597656 13.550781 -1.023438 12.65625 -0.609375 C 11.769531 -0.203125 10.71875 0 9.5 0 L 1.765625 0 L 1.765625 -17.9375 L 9.171875 -17.9375 C 10.390625 -17.9375 11.4375 -17.738281 12.3125 -17.34375 C 13.195312 -16.945312 13.863281 -16.394531 14.3125 -15.6875 C 14.769531 -14.988281 15 -14.195312 15 -13.3125 C 15 -12.257812 14.71875 -11.378906 14.15625 -10.671875 C 13.601562 -9.972656 12.863281 -9.484375 11.9375 -9.203125 Z M 5.375 -10.53125 L 8.65625 -10.53125 C 9.507812 -10.53125 10.164062 -10.722656 10.625 -11.109375 C 11.09375 -11.492188 11.328125 -12.046875 11.328125 -12.765625 C 11.328125 -13.484375 11.09375 -14.039062 10.625 -14.4375 C 10.164062 -14.832031 9.507812 -15.03125 8.65625 -15.03125 L 5.375 -15.03125 Z M 8.984375 -2.921875 C 9.859375 -2.921875 10.539062 -3.125 11.03125 -3.53125 C 11.519531 -3.945312 11.765625 -4.535156 11.765625 -5.296875 C 11.765625 -6.066406 11.503906 -6.664062 10.984375 -7.09375 C 10.472656 -7.53125 9.78125 -7.75 8.90625 -7.75 L 5.375 -7.75 L 5.375 -2.921875 Z M 8.984375 -2.921875 "
          />
        </g>
      </g>
    </g>
    <g fill="currentcolor" fill-opacity="1">
      <g transform="translate(18.455713, 33.516293)">
        <g>
          <path
            d="M 5.3125 -17.9375 L 5.3125 -6.828125 C 5.3125 -5.617188 5.628906 -4.691406 6.265625 -4.046875 C 6.898438 -3.398438 7.789062 -3.078125 8.9375 -3.078125 C 10.101562 -3.078125 11.003906 -3.398438 11.640625 -4.046875 C 12.273438 -4.691406 12.59375 -5.617188 12.59375 -6.828125 L 12.59375 -17.9375 L 16.203125 -17.9375 L 16.203125 -6.859375 C 16.203125 -5.335938 15.875 -4.046875 15.21875 -2.984375 C 14.5625 -1.929688 13.679688 -1.140625 12.578125 -0.609375 C 11.472656 -0.078125 10.242188 0.1875 8.890625 0.1875 C 7.554688 0.1875 6.34375 -0.078125 5.25 -0.609375 C 4.164062 -1.140625 3.304688 -1.929688 2.671875 -2.984375 C 2.035156 -4.046875 1.71875 -5.335938 1.71875 -6.859375 L 1.71875 -17.9375 Z M 5.3125 -17.9375 "
          />
        </g>
      </g>
    </g>
    <g fill="currentcolor" fill-opacity="1">
      <g transform="translate(36.364241, 33.516293)">
        <g>
          <path
            d="M 7.96875 0.1875 C 6.71875 0.1875 5.585938 -0.0234375 4.578125 -0.453125 C 3.578125 -0.890625 2.785156 -1.507812 2.203125 -2.3125 C 1.617188 -3.113281 1.320312 -4.0625 1.3125 -5.15625 L 5.15625 -5.15625 C 5.207031 -4.425781 5.46875 -3.847656 5.9375 -3.421875 C 6.414062 -2.992188 7.066406 -2.78125 7.890625 -2.78125 C 8.722656 -2.78125 9.378906 -2.976562 9.859375 -3.375 C 10.335938 -3.78125 10.578125 -4.304688 10.578125 -4.953125 C 10.578125 -5.484375 10.414062 -5.921875 10.09375 -6.265625 C 9.769531 -6.609375 9.363281 -6.878906 8.875 -7.078125 C 8.382812 -7.273438 7.710938 -7.492188 6.859375 -7.734375 C 5.691406 -8.078125 4.742188 -8.414062 4.015625 -8.75 C 3.285156 -9.082031 2.660156 -9.585938 2.140625 -10.265625 C 1.617188 -10.941406 1.359375 -11.84375 1.359375 -12.96875 C 1.359375 -14.03125 1.625 -14.953125 2.15625 -15.734375 C 2.6875 -16.523438 3.429688 -17.128906 4.390625 -17.546875 C 5.347656 -17.972656 6.445312 -18.1875 7.6875 -18.1875 C 9.53125 -18.1875 11.03125 -17.734375 12.1875 -16.828125 C 13.34375 -15.929688 13.984375 -14.679688 14.109375 -13.078125 L 10.140625 -13.078125 C 10.109375 -13.691406 9.847656 -14.195312 9.359375 -14.59375 C 8.867188 -15 8.222656 -15.203125 7.421875 -15.203125 C 6.722656 -15.203125 6.160156 -15.019531 5.734375 -14.65625 C 5.316406 -14.300781 5.109375 -13.78125 5.109375 -13.09375 C 5.109375 -12.613281 5.265625 -12.21875 5.578125 -11.90625 C 5.898438 -11.59375 6.296875 -11.335938 6.765625 -11.140625 C 7.234375 -10.941406 7.898438 -10.710938 8.765625 -10.453125 C 9.921875 -10.109375 10.867188 -9.765625 11.609375 -9.421875 C 12.347656 -9.078125 12.984375 -8.5625 13.515625 -7.875 C 14.046875 -7.195312 14.3125 -6.300781 14.3125 -5.1875 C 14.3125 -4.226562 14.0625 -3.335938 13.5625 -2.515625 C 13.0625 -1.691406 12.332031 -1.035156 11.375 -0.546875 C 10.414062 -0.0546875 9.28125 0.1875 7.96875 0.1875 Z M 7.96875 0.1875 "
          />
        </g>
      </g>
    </g>
    <g fill="currentcolor" fill-opacity="1">
      <g transform="translate(52.011719, 33.516293)">
        <g>
          <path
            d="M 5.375 -17.9375 L 5.375 0 L 1.765625 0 L 1.765625 -17.9375 Z M 5.375 -17.9375 "
          />
        </g>
      </g>
    </g>
    <g fill="currentcolor" fill-opacity="1">
      <g transform="translate(59.154575, 33.516293)">
        <g>
          <path
            d="M 5.375 -2.84375 L 11.28125 -2.84375 L 11.28125 0 L 1.765625 0 L 1.765625 -17.9375 L 5.375 -17.9375 Z M 5.375 -2.84375 "
          />
        </g>
      </g>
    </g>
    <g fill="currentcolor" fill-opacity="1">
      <g transform="translate(70.947994, 33.516293)">
        <g>
          <path
            d="M 5.375 -17.9375 L 5.375 0 L 1.765625 0 L 1.765625 -17.9375 Z M 5.375 -17.9375 "
          />
        </g>
      </g>
    </g>
    <g fill="currentcolor" fill-opacity="1">
      <g transform="translate(78.09085, 33.516293)">
        <g>
          <path
            d="M 17.109375 0 L 13.515625 0 L 5.375 -12.296875 L 5.375 0 L 1.765625 0 L 1.765625 -17.953125 L 5.375 -17.953125 L 13.515625 -5.625 L 13.515625 -17.953125 L 17.109375 -17.953125 Z M 17.109375 0 "
          />
        </g>
      </g>
    </g>
    <g fill="currentcolor" fill-opacity="1">
      <g transform="translate(96.975736, 33.516293)">
        <g>
          <path
            d="M 11.890625 0 L 5.375 -7.984375 L 5.375 0 L 1.765625 0 L 1.765625 -17.9375 L 5.375 -17.9375 L 5.375 -9.890625 L 11.890625 -17.9375 L 16.234375 -17.9375 L 8.84375 -9.046875 L 16.4375 0 Z M 11.890625 0 "
          />
        </g>
      </g>
    </g>
    <g clip-path="url(#8f7dc2aee1)">
      <g clip-path="url(#49bc475daa)">
        <g clip-path="url(#ead20f4e77)">
          <g clip-path="url(#c6af56b6b9)">
            <path
              fill="currentcolor"
              d="M 144.953125 18.640625 C 143.207031 16.894531 140.890625 15.9375 138.421875 15.945312 L 136.511719 15.949219 C 136.054688 15.949219 135.625 16.128906 135.300781 16.453125 C 134.976562 16.78125 134.796875 17.210938 134.796875 17.667969 C 134.792969 18.585938 135.589844 19.378906 136.503906 19.378906 L 138.414062 19.371094 C 141.621094 19.363281 144.226562 21.96875 144.21875 25.179688 C 144.214844 26.734375 143.605469 28.199219 142.507812 29.300781 C 141.40625 30.402344 139.941406 31.011719 138.382812 31.015625 L 136.472656 31.019531 C 136.015625 31.019531 135.585938 31.199219 135.261719 31.523438 C 134.9375 31.851562 134.757812 32.28125 134.757812 32.738281 C 134.753906 33.195312 134.933594 33.625 135.253906 33.949219 C 135.578125 34.273438 136.007812 34.449219 136.464844 34.449219 L 138.375 34.441406 C 140.847656 34.4375 143.171875 33.46875 144.921875 31.71875 C 146.675781 29.96875 147.640625 27.644531 147.648438 25.167969 C 147.652344 22.703125 146.695312 20.382812 144.953125 18.640625 Z M 144.953125 18.640625 "
              fill-opacity="1"
              fill-rule="nonzero"
            />
          </g>
        </g>
      </g>
    </g>
    <g clip-path="url(#970b2682d9)">
      <g clip-path="url(#3d06eb5994)">
        <g clip-path="url(#da4637b09d)">
          <g clip-path="url(#985284e205)">
            <path
              fill="currentcolor"
              d="M 119.226562 31.78125 C 120.96875 33.523438 123.289062 34.480469 125.757812 34.476562 L 127.664062 34.46875 C 128.125 34.46875 128.554688 34.289062 128.878906 33.964844 C 129.203125 33.640625 129.382812 33.210938 129.382812 32.75 C 129.386719 31.835938 128.589844 31.039062 127.671875 31.042969 L 125.765625 31.046875 C 122.554688 31.058594 119.949219 28.453125 119.957031 25.242188 C 119.964844 22.03125 122.585938 19.414062 125.792969 19.402344 L 127.703125 19.398438 C 128.648438 19.398438 129.417969 18.625 129.421875 17.679688 C 129.425781 16.738281 128.65625 15.96875 127.710938 15.972656 L 125.804688 15.976562 C 120.703125 15.988281 116.542969 20.148438 116.53125 25.25 C 116.523438 27.714844 117.480469 30.035156 119.226562 31.78125 Z M 119.226562 31.78125 "
              fill-opacity="1"
              fill-rule="nonzero"
            />
          </g>
        </g>
      </g>
    </g>
    <g clip-path="url(#879d3b519f)">
      <g clip-path="url(#fd06e49349)">
        <g clip-path="url(#a4736d7f5d)">
          <g clip-path="url(#271410cb54)">
            <path
              fill="currentcolor"
              d="M 123.859375 25.230469 C 123.859375 25.6875 124.035156 26.117188 124.359375 26.441406 C 124.679688 26.765625 125.109375 26.941406 125.570312 26.941406 L 138.601562 26.90625 C 139.058594 26.90625 139.488281 26.726562 139.8125 26.402344 C 140.136719 26.078125 140.316406 25.644531 140.320312 25.1875 C 140.320312 24.273438 139.523438 23.476562 138.609375 23.480469 L 125.578125 23.511719 C 125.121094 23.515625 124.6875 23.691406 124.363281 24.019531 C 124.039062 24.34375 123.859375 24.773438 123.859375 25.230469 Z M 123.859375 25.230469 "
              fill-opacity="1"
              fill-rule="nonzero"
            />
          </g>
        </g>
      </g>
    </g>
  </svg>