<svg
    xmlns:xlink="http://www.w3.org/1999/xlink"
    width="200"
    zoomAndPan="magnify"
    viewBox="0 0 150 52.499999"
    height="70"
    preserveAspectRatio="xMidYMid meet"
    version="1.0"
  >
    <defs>
      <g />
      <clipPath id="c50438b4f6">
        <path
          d="M 124.246094 24.519531 L 147.800781 24.519531 L 147.800781 36.292969 L 124.246094 36.292969 Z M 124.246094 24.519531 "
          clip-rule="nonzero"
        />
      </clipPath>
      <clipPath id="1b22a66dc1">
        <path
          d="M 130.4375 15.804688 L 141.652344 15.804688 L 141.652344 21.414062 L 130.4375 21.414062 Z M 130.4375 15.804688 "
          clip-rule="nonzero"
        />
      </clipPath>
    </defs>
    <g clip-path="url(#c50438b4f6)">
      <path
        fill="currentcolor"
        d="M 144.203125 24.519531 C 144.203125 29.054688 140.519531 32.734375 135.984375 32.734375 C 131.449219 32.734375 127.765625 29.054688 127.765625 24.519531 L 124.261719 24.519531 C 124.261719 30.992188 129.511719 36.242188 135.984375 36.242188 C 142.460938 36.242188 147.6875 30.992188 147.6875 24.519531 Z M 144.203125 24.519531 "
        fill-opacity="1"
        fill-rule="nonzero"
      />
    </g>
    <g clip-path="url(#1b22a66dc1)">
      <path
        fill="currentcolor"
        d="M 133.582031 21.34375 L 130.4375 21.34375 C 130.4375 18.285156 132.917969 15.804688 135.976562 15.804688 C 139.035156 15.804688 141.515625 18.285156 141.515625 21.34375 L 138.371094 21.34375 C 138.363281 20.027344 137.292969 18.964844 135.976562 18.964844 C 134.660156 18.964844 133.589844 20.027344 133.582031 21.34375 Z M 133.582031 21.34375 "
        fill-opacity="1"
        fill-rule="nonzero"
      />
    </g>
    <g fill="currentcolor" fill-opacity="1">
      <g transform="translate(0.707549, 35.514336)">
        <g>
          <path
            d="M 13.109375 -10.09375 C 14.210938 -9.882812 15.117188 -9.328125 15.828125 -8.421875 C 16.546875 -7.523438 16.90625 -6.492188 16.90625 -5.328125 C 16.90625 -4.273438 16.644531 -3.347656 16.125 -2.546875 C 15.613281 -1.753906 14.867188 -1.128906 13.890625 -0.671875 C 12.921875 -0.222656 11.765625 0 10.421875 0 L 1.9375 0 L 1.9375 -19.671875 L 10.0625 -19.671875 C 11.394531 -19.671875 12.546875 -19.453125 13.515625 -19.015625 C 14.484375 -18.585938 15.21875 -17.988281 15.71875 -17.21875 C 16.21875 -16.445312 16.46875 -15.570312 16.46875 -14.59375 C 16.46875 -13.445312 16.160156 -12.488281 15.546875 -11.71875 C 14.929688 -10.957031 14.117188 -10.414062 13.109375 -10.09375 Z M 5.890625 -11.5625 L 9.5 -11.5625 C 10.4375 -11.5625 11.160156 -11.769531 11.671875 -12.1875 C 12.179688 -12.613281 12.4375 -13.222656 12.4375 -14.015625 C 12.4375 -14.796875 12.179688 -15.398438 11.671875 -15.828125 C 11.160156 -16.265625 10.4375 -16.484375 9.5 -16.484375 L 5.890625 -16.484375 Z M 9.859375 -3.21875 C 10.816406 -3.21875 11.5625 -3.441406 12.09375 -3.890625 C 12.632812 -4.335938 12.90625 -4.976562 12.90625 -5.8125 C 12.90625 -6.65625 12.625 -7.316406 12.0625 -7.796875 C 11.5 -8.273438 10.738281 -8.515625 9.78125 -8.515625 L 5.890625 -8.515625 L 5.890625 -3.21875 Z M 9.859375 -3.21875 "
          />
        </g>
      </g>
    </g>
    <g fill="currentcolor" fill-opacity="1">
      <g transform="translate(18.827834, 35.514336)">
        <g>
          <path
            d="M 5.828125 -19.671875 L 5.828125 -7.5 C 5.828125 -6.164062 6.175781 -5.144531 6.875 -4.4375 C 7.570312 -3.726562 8.550781 -3.375 9.8125 -3.375 C 11.082031 -3.375 12.066406 -3.726562 12.765625 -4.4375 C 13.460938 -5.144531 13.8125 -6.164062 13.8125 -7.5 L 13.8125 -19.671875 L 17.78125 -19.671875 L 17.78125 -7.53125 C 17.78125 -5.851562 17.414062 -4.4375 16.6875 -3.28125 C 15.96875 -2.125 15.003906 -1.253906 13.796875 -0.671875 C 12.585938 -0.0859375 11.238281 0.203125 9.75 0.203125 C 8.28125 0.203125 6.945312 -0.0859375 5.75 -0.671875 C 4.5625 -1.253906 3.617188 -2.125 2.921875 -3.28125 C 2.234375 -4.4375 1.890625 -5.851562 1.890625 -7.53125 L 1.890625 -19.671875 Z M 5.828125 -19.671875 "
          />
        </g>
      </g>
    </g>
    <g fill="currentcolor" fill-opacity="1">
      <g transform="translate(38.469885, 35.514336)">
        <g>
          <path
            d="M 8.734375 0.203125 C 7.367188 0.203125 6.132812 -0.03125 5.03125 -0.5 C 3.925781 -0.976562 3.054688 -1.65625 2.421875 -2.53125 C 1.785156 -3.414062 1.457031 -4.460938 1.4375 -5.671875 L 5.671875 -5.671875 C 5.722656 -4.859375 6.003906 -4.21875 6.515625 -3.75 C 7.035156 -3.28125 7.75 -3.046875 8.65625 -3.046875 C 9.570312 -3.046875 10.289062 -3.265625 10.8125 -3.703125 C 11.34375 -4.148438 11.609375 -4.726562 11.609375 -5.4375 C 11.609375 -6.019531 11.429688 -6.5 11.078125 -6.875 C 10.722656 -7.25 10.273438 -7.546875 9.734375 -7.765625 C 9.203125 -7.984375 8.46875 -8.222656 7.53125 -8.484375 C 6.25 -8.859375 5.207031 -9.226562 4.40625 -9.59375 C 3.613281 -9.957031 2.929688 -10.507812 2.359375 -11.25 C 1.785156 -12 1.5 -12.992188 1.5 -14.234375 C 1.5 -15.398438 1.785156 -16.414062 2.359375 -17.28125 C 2.941406 -18.144531 3.757812 -18.804688 4.8125 -19.265625 C 5.875 -19.722656 7.078125 -19.953125 8.421875 -19.953125 C 10.453125 -19.953125 12.101562 -19.457031 13.375 -18.46875 C 14.644531 -17.488281 15.34375 -16.113281 15.46875 -14.34375 L 11.140625 -14.34375 C 11.097656 -15.019531 10.804688 -15.578125 10.265625 -16.015625 C 9.734375 -16.460938 9.023438 -16.6875 8.140625 -16.6875 C 7.367188 -16.6875 6.753906 -16.488281 6.296875 -16.09375 C 5.835938 -15.695312 5.609375 -15.125 5.609375 -14.375 C 5.609375 -13.851562 5.78125 -13.414062 6.125 -13.0625 C 6.476562 -12.71875 6.910156 -12.4375 7.421875 -12.21875 C 7.941406 -12 8.671875 -11.75 9.609375 -11.46875 C 10.890625 -11.09375 11.929688 -10.71875 12.734375 -10.34375 C 13.546875 -9.96875 14.242188 -9.40625 14.828125 -8.65625 C 15.410156 -7.90625 15.703125 -6.914062 15.703125 -5.6875 C 15.703125 -4.632812 15.425781 -3.65625 14.875 -2.75 C 14.332031 -1.851562 13.535156 -1.132812 12.484375 -0.59375 C 11.429688 -0.0625 10.179688 0.203125 8.734375 0.203125 Z M 8.734375 0.203125 "
          />
        </g>
      </g>
    </g>
    <g fill="currentcolor" fill-opacity="1">
      <g transform="translate(55.632019, 35.514336)">
        <g>
          <path
            d="M 5.890625 -19.671875 L 5.890625 0 L 1.9375 0 L 1.9375 -19.671875 Z M 5.890625 -19.671875 "
          />
        </g>
      </g>
    </g>
    <g fill="currentcolor" fill-opacity="1">
      <g transform="translate(63.466294, 35.514336)">
        <g>
          <path
            d="M 13.109375 -10.09375 C 14.210938 -9.882812 15.117188 -9.328125 15.828125 -8.421875 C 16.546875 -7.523438 16.90625 -6.492188 16.90625 -5.328125 C 16.90625 -4.273438 16.644531 -3.347656 16.125 -2.546875 C 15.613281 -1.753906 14.867188 -1.128906 13.890625 -0.671875 C 12.921875 -0.222656 11.765625 0 10.421875 0 L 1.9375 0 L 1.9375 -19.671875 L 10.0625 -19.671875 C 11.394531 -19.671875 12.546875 -19.453125 13.515625 -19.015625 C 14.484375 -18.585938 15.21875 -17.988281 15.71875 -17.21875 C 16.21875 -16.445312 16.46875 -15.570312 16.46875 -14.59375 C 16.46875 -13.445312 16.160156 -12.488281 15.546875 -11.71875 C 14.929688 -10.957031 14.117188 -10.414062 13.109375 -10.09375 Z M 5.890625 -11.5625 L 9.5 -11.5625 C 10.4375 -11.5625 11.160156 -11.769531 11.671875 -12.1875 C 12.179688 -12.613281 12.4375 -13.222656 12.4375 -14.015625 C 12.4375 -14.796875 12.179688 -15.398438 11.671875 -15.828125 C 11.160156 -16.265625 10.4375 -16.484375 9.5 -16.484375 L 5.890625 -16.484375 Z M 9.859375 -3.21875 C 10.816406 -3.21875 11.5625 -3.441406 12.09375 -3.890625 C 12.632812 -4.335938 12.90625 -4.976562 12.90625 -5.8125 C 12.90625 -6.65625 12.625 -7.316406 12.0625 -7.796875 C 11.5 -8.273438 10.738281 -8.515625 9.78125 -8.515625 L 5.890625 -8.515625 L 5.890625 -3.21875 Z M 9.859375 -3.21875 "
          />
        </g>
      </g>
    </g>
    <g fill="currentcolor" fill-opacity="1">
      <g transform="translate(81.586579, 35.514336)">
        <g>
          <path
            d="M 5.828125 -19.671875 L 5.828125 -7.5 C 5.828125 -6.164062 6.175781 -5.144531 6.875 -4.4375 C 7.570312 -3.726562 8.550781 -3.375 9.8125 -3.375 C 11.082031 -3.375 12.066406 -3.726562 12.765625 -4.4375 C 13.460938 -5.144531 13.8125 -6.164062 13.8125 -7.5 L 13.8125 -19.671875 L 17.78125 -19.671875 L 17.78125 -7.53125 C 17.78125 -5.851562 17.414062 -4.4375 16.6875 -3.28125 C 15.96875 -2.125 15.003906 -1.253906 13.796875 -0.671875 C 12.585938 -0.0859375 11.238281 0.203125 9.75 0.203125 C 8.28125 0.203125 6.945312 -0.0859375 5.75 -0.671875 C 4.5625 -1.253906 3.617188 -2.125 2.921875 -3.28125 C 2.234375 -4.4375 1.890625 -5.851562 1.890625 -7.53125 L 1.890625 -19.671875 Z M 5.828125 -19.671875 "
          />
        </g>
      </g>
    </g>
    <g fill="currentcolor" fill-opacity="1">
      <g transform="translate(101.22863, 35.514336)">
        <g>
          <path
            d="M 17.59375 -19.671875 L 10.9375 -6.84375 L 10.9375 0 L 6.984375 0 L 6.984375 -6.84375 L 0.3125 -19.671875 L 4.765625 -19.671875 L 8.984375 -10.6875 L 13.1875 -19.671875 Z M 17.59375 -19.671875 "
          />
        </g>
      </g>
    </g>
  </svg>