<svg
    xmlns="http://www.w3.org/2000/svg"
    xmlns:xlink="http://www.w3.org/1999/xlink"
    width="70"
    zoomAndPan="magnify"
    viewBox="0 0 150 52.499999"
    height="40"
    preserveAspectRatio="xMidYMid meet"
    version="1.0"
  >
    <defs>
      <g />
    </defs>
    <g fill="currentcolor" fill-opacity="1">
      <g transform="translate(4.598085, 35.21284)">
        <g>
          <path
            d="M 19.9375 -3.625 C 18.03125 -1.820312 15.765625 -0.921875 13.140625 -0.921875 C 11.671875 -0.921875 10.375 -1.175781 9.25 -1.6875 C 8.125 -2.195312 7.1875 -2.875 6.4375 -3.71875 C 5.6875 -4.5625 5.117188 -5.535156 4.734375 -6.640625 C 4.347656 -7.742188 4.15625 -8.894531 4.15625 -10.09375 C 4.15625 -11.375 4.359375 -12.539062 4.765625 -13.59375 C 5.171875 -14.65625 5.738281 -15.570312 6.46875 -16.34375 C 7.195312 -17.113281 8.0625 -17.710938 9.0625 -18.140625 C 10.070312 -18.566406 11.164062 -18.78125 12.34375 -18.78125 C 13.15625 -18.78125 13.890625 -18.6875 14.546875 -18.5 C 15.210938 -18.3125 15.800781 -18.066406 16.3125 -17.765625 C 16.832031 -17.472656 17.253906 -17.132812 17.578125 -16.75 C 17.910156 -16.363281 18.144531 -15.972656 18.28125 -15.578125 L 20.359375 -15.578125 C 20.078125 -16.210938 19.71875 -16.800781 19.28125 -17.34375 C 18.84375 -17.894531 18.296875 -18.363281 17.640625 -18.75 C 16.984375 -19.144531 16.210938 -19.457031 15.328125 -19.6875 C 14.441406 -19.914062 13.4375 -20.03125 12.3125 -20.03125 C 10.6875 -20.03125 9.203125 -19.796875 7.859375 -19.328125 C 6.515625 -18.859375 5.363281 -18.1875 4.40625 -17.3125 C 3.457031 -16.4375 2.71875 -15.382812 2.1875 -14.15625 C 1.664062 -12.925781 1.40625 -11.554688 1.40625 -10.046875 C 1.40625 -8.734375 1.613281 -7.453125 2.03125 -6.203125 C 2.457031 -4.953125 3.109375 -3.84375 3.984375 -2.875 C 4.867188 -1.914062 5.992188 -1.140625 7.359375 -0.546875 C 8.734375 0.046875 10.367188 0.34375 12.265625 0.34375 C 13.460938 0.34375 14.535156 0.226562 15.484375 0 C 16.429688 -0.226562 17.253906 -0.503906 17.953125 -0.828125 C 18.660156 -1.160156 19.25 -1.515625 19.71875 -1.890625 C 20.1875 -2.265625 20.539062 -2.59375 20.78125 -2.875 Z M 19.9375 -3.625 "
          />
        </g>
      </g>
    </g>
    <g fill="currentcolor" fill-opacity="1">
      <g transform="translate(25.941171, 35.21284)">
        <g>
          <path
            d="M 0.84375 -19.6875 L 7.65625 -7.453125 L 7.65625 0 L 10.203125 0 L 10.203125 -7.703125 L 17.125 -19.6875 L 15.609375 -19.6875 L 9.59375 -9.3125 L 9.484375 -9.3125 L 3.734375 -19.6875 Z M 0.84375 -19.6875 "
          />
        </g>
      </g>
    </g>
    <g fill="currentcolor" fill-opacity="1">
      <g transform="translate(43.909858, 35.21284)">
        <g>
          <path
            d="M 3.375 -19.6875 L 3.375 0 L 5.9375 0 L 5.9375 -8.6875 L 7.171875 -8.6875 C 7.691406 -8.6875 8.125 -8.640625 8.46875 -8.546875 C 8.820312 -8.453125 9.140625 -8.289062 9.421875 -8.0625 C 9.703125 -7.84375 9.960938 -7.554688 10.203125 -7.203125 C 10.453125 -6.847656 10.742188 -6.40625 11.078125 -5.875 L 13.296875 -2.59375 C 13.578125 -2.15625 13.851562 -1.757812 14.125 -1.40625 C 14.40625 -1.050781 14.703125 -0.742188 15.015625 -0.484375 C 15.335938 -0.234375 15.695312 -0.0351562 16.09375 0.109375 C 16.5 0.265625 16.984375 0.34375 17.546875 0.34375 C 17.960938 0.34375 18.300781 0.320312 18.5625 0.28125 C 18.820312 0.238281 19.082031 0.144531 19.34375 0 L 19.34375 -1.046875 C 19.25 -1.023438 19.15625 -1.007812 19.0625 -1 C 18.96875 -0.988281 18.875 -0.984375 18.78125 -0.984375 C 18.394531 -0.984375 18.050781 -1.039062 17.75 -1.15625 C 17.445312 -1.269531 17.164062 -1.429688 16.90625 -1.640625 C 16.644531 -1.859375 16.390625 -2.117188 16.140625 -2.421875 C 15.898438 -2.734375 15.648438 -3.085938 15.390625 -3.484375 C 14.597656 -4.628906 13.984375 -5.539062 13.546875 -6.21875 C 13.117188 -6.90625 12.78125 -7.4375 12.53125 -7.8125 C 12.28125 -8.1875 12.070312 -8.457031 11.90625 -8.625 C 11.75 -8.800781 11.554688 -8.945312 11.328125 -9.0625 L 11.046875 -9.203125 L 11.046875 -9.3125 C 11.953125 -9.363281 12.726562 -9.554688 13.375 -9.890625 C 14.019531 -10.234375 14.546875 -10.65625 14.953125 -11.15625 C 15.367188 -11.664062 15.671875 -12.21875 15.859375 -12.8125 C 16.046875 -13.40625 16.140625 -13.984375 16.140625 -14.546875 C 16.140625 -15.046875 16.039062 -15.59375 15.84375 -16.1875 C 15.644531 -16.789062 15.304688 -17.347656 14.828125 -17.859375 C 14.359375 -18.378906 13.707031 -18.8125 12.875 -19.15625 C 12.050781 -19.507812 11.015625 -19.6875 9.765625 -19.6875 Z M 5.9375 -18.453125 L 8.78125 -18.453125 C 9.488281 -18.453125 10.128906 -18.347656 10.703125 -18.140625 C 11.273438 -17.929688 11.765625 -17.644531 12.171875 -17.28125 C 12.585938 -16.914062 12.898438 -16.476562 13.109375 -15.96875 C 13.328125 -15.46875 13.4375 -14.914062 13.4375 -14.3125 C 13.4375 -13.8125 13.335938 -13.300781 13.140625 -12.78125 C 12.953125 -12.269531 12.660156 -11.800781 12.265625 -11.375 C 11.867188 -10.957031 11.382812 -10.613281 10.8125 -10.34375 C 10.238281 -10.082031 9.578125 -9.953125 8.828125 -9.953125 L 5.9375 -9.953125 Z M 5.9375 -18.453125 "
          />
        </g>
      </g>
    </g>
    <g fill="currentcolor" fill-opacity="1">
      <g transform="translate(64.100025, 35.21284)">
        <g>
          <path
            d="M 2.25 -19.6875 L 2.25 -7.59375 C 2.25 -6.820312 2.320312 -5.972656 2.46875 -5.046875 C 2.625 -4.117188 2.984375 -3.253906 3.546875 -2.453125 C 4.109375 -1.660156 4.941406 -0.992188 6.046875 -0.453125 C 7.148438 0.078125 8.660156 0.34375 10.578125 0.34375 C 11.773438 0.34375 12.835938 0.15625 13.765625 -0.21875 C 14.691406 -0.59375 15.46875 -1.109375 16.09375 -1.765625 C 16.726562 -2.421875 17.203125 -3.1875 17.515625 -4.0625 C 17.835938 -4.9375 18 -5.867188 18 -6.859375 L 18 -19.6875 L 16.765625 -19.6875 L 16.765625 -7.796875 C 16.765625 -7.378906 16.753906 -6.957031 16.734375 -6.53125 C 16.710938 -6.113281 16.65625 -5.691406 16.5625 -5.265625 C 16.46875 -4.847656 16.320312 -4.429688 16.125 -4.015625 C 15.925781 -3.609375 15.640625 -3.195312 15.265625 -2.78125 C 14.597656 -2.050781 13.84375 -1.554688 13 -1.296875 C 12.15625 -1.035156 11.269531 -0.90625 10.34375 -0.90625 C 9.5625 -0.90625 8.863281 -1.023438 8.25 -1.265625 C 7.644531 -1.503906 7.070312 -1.867188 6.53125 -2.359375 C 6.09375 -2.734375 5.757812 -3.109375 5.53125 -3.484375 C 5.3125 -3.859375 5.144531 -4.226562 5.03125 -4.59375 C 4.914062 -4.957031 4.847656 -5.328125 4.828125 -5.703125 C 4.816406 -6.078125 4.8125 -6.453125 4.8125 -6.828125 L 4.8125 -19.6875 Z M 2.25 -19.6875 "
          />
        </g>
      </g>
    </g>
    <g fill="currentcolor" fill-opacity="1">
      <g transform="translate(84.34643, 35.21284)">
        <g>
          <path
            d="M 19.234375 -19.6875 L 19.234375 -4.640625 L 19.125 -4.640625 L 3.515625 -20.03125 L 3.375 -20.03125 L 3.375 0 L 4.671875 0 L 4.671875 -15.046875 L 4.78125 -15.046875 L 20.390625 0.34375 L 20.53125 0.34375 L 20.53125 -19.6875 Z M 19.234375 -19.6875 "
          />
        </g>
      </g>
    </g>
    <g fill="currentcolor" fill-opacity="1">
      <g transform="translate(108.248443, 35.21284)">
        <g>
          <path
            d="M 3.375 -19.6875 L 3.375 0 L 16.09375 0 L 16.09375 -1.546875 L 5.9375 -1.546875 L 5.9375 -9.78125 L 14.65625 -9.78125 L 14.65625 -11.078125 L 5.9375 -11.078125 L 5.9375 -18.140625 L 16.09375 -18.140625 L 16.09375 -19.6875 Z M 3.375 -19.6875 "
          />
        </g>
      </g>
    </g>
    <g fill="currentcolor" fill-opacity="1">
      <g transform="translate(125.176687, 35.21284)">
        <g>
          <path
            d="M 4 -19.6875 L 0.84375 -19.6875 L 8.515625 -9.8125 L 0.984375 0 L 2.5 0 L 9.21875 -8.796875 L 9.34375 -8.796875 L 16.203125 0 L 19.375 0 L 10.859375 -10.890625 L 17.578125 -19.6875 L 16.09375 -19.6875 L 10.15625 -11.953125 L 10.015625 -11.953125 Z M 4 -19.6875 "
          />
        </g>
      </g>
    </g>
  </svg>