<svg
    xmlns="http://www.w3.org/2000/svg"
    xmlns:xlink="http://www.w3.org/1999/xlink"
    width="16"
    zoomAndPan="magnify"
    viewBox="0 0 30 30.000001"
    height="16"
    preserveAspectRatio="xMidYMid meet"
    version="1.0"
  >
    <defs>
      <clipPath id="288c174509">
        <path
          d="M 0.652344 0.988281 L 29.515625 0.988281 L 29.515625 27.839844 L 0.652344 27.839844 Z M 0.652344 0.988281 "
          clip-rule="nonzero"
        />
      </clipPath>
    </defs>
    <g clip-path="url(#288c174509)">
      <path
        fill="currentColor"
        d="M 23.125 21.410156 C 22.640625 21.886719 21.855469 21.886719 21.371094 21.410156 C 20.890625 20.929688 20.890625 20.15625 21.371094 19.679688 L 25.449219 15.65625 L 11.101562 15.65625 C 10.417969 15.65625 9.863281 15.109375 9.863281 14.433594 C 9.863281 13.761719 10.417969 13.214844 11.101562 13.214844 L 25.449219 13.214844 L 21.371094 9.191406 C 20.890625 8.714844 20.890625 7.941406 21.371094 7.460938 C 21.855469 6.984375 22.640625 6.984375 23.125 7.460938 L 29.316406 13.570312 C 29.558594 13.808594 29.679688 14.121094 29.679688 14.433594 C 29.679688 14.75 29.558594 15.0625 29.316406 15.300781 Z M 10.585938 26.652344 C 10.585938 27.328125 10.03125 27.875 9.347656 27.875 L 4.394531 27.875 C 3.894531 27.875 3.410156 27.78125 2.953125 27.589844 C 2.511719 27.410156 2.113281 27.148438 1.773438 26.816406 C 1.429688 26.484375 1.164062 26.09375 0.972656 25.660156 C 0.777344 25.210938 0.679688 24.734375 0.679688 24.242188 L 0.679688 4.660156 C 0.679688 4.167969 0.777344 3.6875 0.972656 3.234375 C 1.160156 2.796875 1.425781 2.40625 1.765625 2.070312 C 2.109375 1.734375 2.503906 1.46875 2.949219 1.285156 C 3.40625 1.089844 3.894531 0.996094 4.394531 0.996094 L 9.347656 0.996094 C 10.03125 0.996094 10.585938 1.542969 10.585938 2.21875 C 10.585938 2.890625 10.03125 3.4375 9.347656 3.4375 L 4.394531 3.4375 C 3.710938 3.4375 3.15625 3.988281 3.15625 4.660156 L 3.15625 24.242188 C 3.15625 24.898438 3.710938 25.429688 4.394531 25.429688 L 9.347656 25.429688 C 10.03125 25.429688 10.585938 25.980469 10.585938 26.652344 Z M 10.585938 26.652344 "
        fill-opacity="1"
        fill-rule="evenodd"
      />
    </g>
  </svg>