<svg
    fill="none"
    xmlns="http://www.w3.org/2000/svg"
    viewBox="30 12 32 32"
  >
    <g filter="url(#filter0_d_68_326)">
      <rect
        x="30"
        y="12"
        width="32"
        height="32"
        rx="12"
        class="fill-primary dark:fill-dark-primary"
      />
      <path
        class="fill-text-foreground dark:fill-dark-text-foreground"
        d="M41.2536 34C40.935 34 40.6164 33.8826 40.3648 33.6312C39.8784 33.145 39.8784 32.3402 40.3648 31.854L49.8574 22.3647C50.3438 21.8784 51.1488 21.8784 51.6352 22.3647C52.1216 22.8509 52.1216 23.6556 51.6352 24.1418L42.1425 33.6312C41.9077 33.8826 41.5723 34 41.2536 34Z"
      />
      <path
        class="fill-text-foreground dark:fill-dark-text-foreground"
        d="M50.7463 34C50.4277 34 50.109 33.8826 49.8574 33.6312L40.3648 24.1418C39.8784 23.6556 39.8784 22.8509 40.3648 22.3647C40.8511 21.8784 41.6562 21.8784 42.1425 22.3647L51.6352 31.854C52.1216 32.3402 52.1216 33.145 51.6352 33.6312C51.3836 33.8826 51.065 34 50.7463 34Z"
      />
    </g>
    <defs>
      <filter
        id="filter0_d_68_326"
        x="0"
        y="-18"
        width="92"
        height="92"
        filterUnits="userSpaceOnUse"
        color-interpolation-filters="sRGB"
      >
        <feFlood flood-opacity="0" result="BackgroundImageFix" />
        <feColorMatrix
          in="SourceAlpha"
          type="matrix"
          values="0 0 0 0 0 0 0 0 0 0 0 0 0 0 0 0 0 0 127 0"
          result="hardAlpha"
        />
        <feMorphology
          radius="6"
          operator="dilate"
          in="SourceAlpha"
          result="effect1_dropShadow_68_326"
        />
        <feOffset />
        <feGaussianBlur stdDeviation="12" />
        <feComposite in2="hardAlpha" operator="out" />
        <feColorMatrix
          type="matrix"
          values="0 0 0 0 0.941176 0 0 0 0 0.337255 0 0 0 0 0.0588235 0 0 0 0.06 0"
        />
        <feBlend
          mode="normal"
          in2="BackgroundImageFix"
          result="effect1_dropShadow_68_326"
        />
        <feBlend
          mode="normal"
          in="SourceGraphic"
          in2="effect1_dropShadow_68_326"
          result="shape"
        />
      </filter>
    </defs>
  </svg>